<svg width="23" height="23" viewBox="0 0 23 23" fill="none" xmlns="http://www.w3.org/2000/svg">
<path d="M7.3186 2.52056C9.76902 0.3061 13.5525 0.37958 15.9143 2.74127L20.259 7.08599L20.4807 7.31939C22.6228 9.69084 22.6231 13.3104 20.4807 15.6817L20.259 15.9141L15.9143 20.2588C13.5525 22.6206 9.76903 22.694 7.3186 20.4795L7.08617 20.2588L2.74145 15.9141C0.303803 13.4763 0.303786 9.52378 2.74145 7.08599L7.08617 2.74127L7.3186 2.52056ZM14.8538 3.80181C13.0595 2.00773 10.1851 1.95176 8.32348 3.63384L8.14672 3.80181L3.802 8.14654C1.95012 9.99854 1.95013 13.0015 3.802 14.8536L8.14672 19.1983L8.32348 19.3663C10.1851 21.0484 13.0595 20.9924 14.8538 19.1983L19.1985 14.8536L19.3664 14.6768C20.9943 12.8752 20.9943 10.1249 19.3664 8.3233L19.1985 8.14654L14.8538 3.80181Z" fill="#FE3F3F"/>
<path d="M13.7307 9.54874C14.0236 9.25591 14.4983 9.25587 14.7912 9.54874C15.084 9.84162 15.084 10.3164 14.7912 10.6093L11.342 14.0585L11.2844 14.1103C10.9901 14.3501 10.5561 14.3333 10.2814 14.0595L8.2082 11.9931C7.91483 11.7007 7.91383 11.2249 8.20624 10.9316C8.49868 10.6384 8.97349 10.6382 9.26679 10.9306L10.8098 12.4677L13.7307 9.54874Z" fill="#FE3F3F"/>
</svg>
